<svg width="36" height="26" viewBox="0 0 36 26" fill="none" xmlns="http://www.w3.org/2000/svg">
<path d="M35.6152 18.9053C30.6339 18.2591 24.0052 18.5316 17.8079 25.5004C11.6106 18.5316 4.98189 18.2591 0.000534058 18.9053L3.45218 15.3782C10.2927 14.4126 15.8859 17.4156 17.8079 19.0377C19.7298 17.4156 25.3231 14.4126 32.1636 15.3782L35.6152 18.9053Z" fill="#F2AC0D"/>
<path d="M21.1943 22.3466C20.0596 23.2023 18.9267 24.2421 17.8078 25.5003C16.689 24.2421 15.5561 23.2023 14.4213 22.3466L17.8078 19.0376L21.1943 22.3466Z" fill="#D29303"/>
<path d="M29.3672 13.3946C29.3412 12.1579 27.8832 9.21609 22.8456 6.24819C21.056 5.19381 17.8705 2.96789 17.808 0C17.7455 2.96789 14.5601 5.19381 12.7704 6.24819C7.73282 9.21609 6.27491 12.1579 6.24887 13.3946C8.51384 12.965 13.942 13.7851 17.808 17.1044C21.6741 13.7851 27.1022 12.965 29.3672 13.3946Z" fill="#26534C"/>
</svg>
