<svg width="106" height="26" viewBox="0 0 106 26" fill="none" xmlns="http://www.w3.org/2000/svg">
<path d="M55.3215 21.0533H52.4749V15.3133C52.3271 15.5933 52.1404 15.8617 51.9149 16.1183C51.6971 16.375 51.4365 16.6122 51.1332 16.83C50.8377 17.0478 50.4993 17.2189 50.1182 17.3433C49.7449 17.4678 49.3327 17.53 48.8815 17.53C47.9404 17.53 47.0888 17.3122 46.3265 16.8767C45.5721 16.4333 44.9693 15.745 44.5182 14.8117C44.0749 13.8706 43.8532 12.6456 43.8532 11.1367C43.8532 9.81444 44.0438 8.69833 44.4249 7.78833C44.806 6.87056 45.3504 6.17833 46.0582 5.71167C46.7738 5.23722 47.6254 5 48.6132 5C49.0877 5 49.5232 5.06222 49.9199 5.18667C50.3243 5.30333 50.686 5.46278 51.0049 5.665C51.3315 5.86722 51.6154 6.09667 51.8565 6.35333C52.0977 6.61 52.2999 6.87055 52.4632 7.135L52.4749 5.23333H55.3215V21.0533ZM49.5115 15.4067C50.1727 15.4067 50.7249 15.2161 51.1682 14.835C51.6115 14.4461 51.9421 13.9328 52.1599 13.295C52.3777 12.6494 52.4865 11.9456 52.4865 11.1833C52.4865 10.0011 52.2377 9.02889 51.7399 8.26667C51.2499 7.49667 50.5071 7.11167 49.5115 7.11167C48.6638 7.11167 47.956 7.45 47.3882 8.12667C46.8282 8.80333 46.5482 9.82222 46.5482 11.1833C46.5482 12.5367 46.8088 13.5789 47.3299 14.31C47.8588 15.0411 48.586 15.4067 49.5115 15.4067Z" fill="#1C3F39"/>
<path d="M62.9546 17.53C62.3635 17.53 61.7919 17.4444 61.2396 17.2733C60.6952 17.0944 60.2052 16.8378 59.7696 16.5033C59.3341 16.1611 58.988 15.7411 58.7313 15.2433C58.4746 14.7456 58.3463 14.1661 58.3463 13.505V5.23333H61.193V13.1783C61.193 13.8317 61.3991 14.3683 61.8113 14.7883C62.2313 15.2083 62.8613 15.4183 63.7013 15.4183C64.4635 15.4183 65.0741 15.22 65.533 14.8233C65.9919 14.4189 66.2213 13.8394 66.2213 13.085V5.23333H69.0446V17.2967H66.863L66.548 14.94C66.4002 15.6011 66.1396 16.1222 65.7663 16.5033C65.4008 16.8767 64.9691 17.1411 64.4713 17.2967C63.9813 17.4522 63.4758 17.53 62.9546 17.53Z" fill="#1C3F39"/>
<path d="M72.1932 17.2967V5.23333H74.9115V7.84667C75.106 7.24778 75.3821 6.73833 75.7399 6.31833C76.1054 5.89055 76.5332 5.56389 77.0232 5.33833C77.5132 5.11278 78.046 5 78.6215 5C78.7615 5 78.8976 5.00778 79.0299 5.02333C79.1621 5.03889 79.2593 5.06611 79.3215 5.105V7.82333C79.236 7.78444 79.1232 7.75722 78.9832 7.74167C78.851 7.72611 78.7343 7.71833 78.6332 7.71833C78.0499 7.67167 77.5326 7.695 77.0815 7.78833C76.6382 7.88167 76.261 8.04111 75.9499 8.26667C75.6465 8.48444 75.4171 8.76444 75.2615 9.10667C75.106 9.44111 75.0282 9.83389 75.0282 10.285V17.2967H72.1932Z" fill="#1C3F39"/>
<path d="M84.6805 17.53C83.9105 17.53 83.2183 17.39 82.6039 17.11C81.9972 16.8222 81.5189 16.4139 81.1689 15.885C80.8266 15.3483 80.6555 14.6989 80.6555 13.9367C80.6555 12.6067 81.1339 11.6033 82.0905 10.9267C83.055 10.25 84.5911 9.89611 86.6989 9.865L88.4955 9.81833V9.00167C88.4955 8.36389 88.305 7.86611 87.9239 7.50833C87.5505 7.14278 86.9672 6.96389 86.1739 6.97167C85.5905 6.97944 85.0539 7.11944 84.5639 7.39167C84.0816 7.65611 83.7628 8.10333 83.6072 8.73333H81.1922C81.2389 7.90889 81.4761 7.22056 81.9039 6.66833C82.3394 6.10833 82.9344 5.69222 83.6889 5.42C84.4433 5.14 85.3144 5 86.3022 5C87.4533 5 88.3905 5.15167 89.1139 5.455C89.8372 5.75833 90.37 6.19778 90.7122 6.77333C91.0544 7.34111 91.2255 8.02944 91.2255 8.83833V17.2967H88.8339L88.6122 15.1267C88.1766 16.0367 87.6244 16.6667 86.9555 17.0167C86.2944 17.3589 85.5361 17.53 84.6805 17.53ZM85.6022 15.605C85.9522 15.605 86.2983 15.5428 86.6405 15.4183C86.9828 15.2861 87.2939 15.1111 87.5739 14.8933C87.8539 14.6678 88.0755 14.4189 88.2389 14.1467C88.41 13.8744 88.4955 13.5906 88.4955 13.295V11.3933L87.0139 11.4167C86.2828 11.4244 85.645 11.5022 85.1005 11.65C84.5561 11.7978 84.1283 12.035 83.8172 12.3617C83.5139 12.6806 83.3622 13.1083 83.3622 13.645C83.3622 14.2594 83.5761 14.7417 84.0039 15.0917C84.4316 15.4339 84.9644 15.605 85.6022 15.605Z" fill="#1C3F39"/>
<path d="M94.5467 17.2967V5.23333H97.3234V6.96C97.51 6.64889 97.7628 6.34944 98.0817 6.06167C98.4084 5.77389 98.8089 5.54056 99.2834 5.36167C99.7578 5.18278 100.314 5.09333 100.952 5.09333C101.698 5.09333 102.391 5.24111 103.028 5.53667C103.674 5.83222 104.191 6.295 104.58 6.925C104.977 7.555 105.175 8.36778 105.175 9.36333V17.2967H102.328V9.70167C102.328 8.90833 102.111 8.32111 101.675 7.94C101.239 7.55111 100.691 7.35667 100.03 7.35667C99.5789 7.35667 99.1511 7.43444 98.7467 7.59C98.3423 7.73778 98.0117 7.96722 97.755 8.27833C97.5062 8.58167 97.3817 8.96278 97.3817 9.42167V17.2967H94.5467Z" fill="#1C3F39"/>
<path d="M35.6147 18.9053C30.6333 18.2591 24.0046 18.5316 17.8073 25.5004C11.6101 18.5316 4.98134 18.2591 -1.52588e-05 18.9053L3.45163 15.3782C10.2922 14.4126 15.8854 17.4156 17.8073 19.0377C19.7293 17.4156 25.3225 14.4126 32.163 15.3782L35.6147 18.9053Z" fill="#F2AC0D"/>
<path d="M21.1938 22.3466C20.0591 23.2023 18.9262 24.2421 17.8074 25.5003C16.6885 24.2421 15.5556 23.2023 14.4209 22.3466L17.8074 19.0376L21.1938 22.3466Z" fill="#D29303"/>
<path d="M29.3665 13.3946C29.3405 12.1579 27.8826 9.21609 22.845 6.24819C21.0553 5.19381 17.8698 2.96789 17.8074 0C17.7449 2.96789 14.5594 5.19381 12.7698 6.24819C7.73215 9.21609 6.27423 12.1579 6.2482 13.3946C8.51317 12.965 13.9413 13.7851 17.8074 17.1044C21.6734 13.7851 27.1015 12.965 29.3665 13.3946Z" fill="#26534C"/>
</svg>
